<svg width="121" height="41" viewBox="0 0 121 41" fill="none" xmlns="http://www.w3.org/2000/svg">
<rect x="1" y="0.677734" width="119" height="39" rx="5.5" fill="black"/>
<rect x="1" y="0.677734" width="119" height="39" rx="5.5" stroke="#A6A6A6"/>
<path d="M18.3051 19.6394L8.58984 30.1837C8.59076 30.1855 8.59076 30.1883 8.59167 30.1902C8.89005 31.3351 9.91203 32.1777 11.1256 32.1777C11.6111 32.1777 12.0664 32.0434 12.457 31.8082L12.488 31.7896L23.4232 25.337L18.3051 19.6394Z" fill="#EA4335"/>
<path d="M28.1332 17.8439L28.124 17.8374L23.4029 15.039L18.084 19.8791L23.422 25.3359L28.1177 22.5655C28.9407 22.1101 29.5001 21.2227 29.5001 20.2C29.5001 19.1829 28.9489 18.3002 28.1332 17.8439Z" fill="#FBBC04"/>
<path d="M8.58942 10.1711C8.53102 10.3913 8.5 10.6227 8.5 10.8616V29.4941C8.5 29.733 8.53102 29.9644 8.59034 30.1837L18.6386 19.9091L8.58942 10.1711Z" fill="#4285F4"/>
<path d="M18.3762 20.1776L23.404 15.0371L12.4815 8.56121C12.0846 8.31767 11.6211 8.1777 11.1256 8.1777C9.91197 8.1777 8.88816 9.02217 8.58978 10.168C8.58978 10.169 8.58887 10.1699 8.58887 10.1708L18.3762 20.1776Z" fill="#34A853"/>
<path d="M44.11 11.8877C44.11 12.8877 43.8133 13.6844 43.22 14.2777C42.5533 14.9844 41.6767 15.3377 40.59 15.3377C39.55 15.3377 38.67 14.9777 37.95 14.2577C37.23 13.5377 36.87 12.6511 36.87 11.5977C36.87 10.5444 37.23 9.65773 37.95 8.93773C38.67 8.21773 39.55 7.85773 40.59 7.85773C41.1167 7.85773 41.6133 7.95107 42.08 8.13773C42.5467 8.3244 42.93 8.58773 43.23 8.92773L42.57 9.58773C42.35 9.32107 42.0633 9.1144 41.71 8.96773C41.3633 8.8144 40.99 8.73773 40.59 8.73773C39.81 8.73773 39.15 9.00773 38.61 9.54773C38.0767 10.0944 37.81 10.7777 37.81 11.5977C37.81 12.4177 38.0767 13.1011 38.61 13.6477C39.15 14.1877 39.81 14.4577 40.59 14.4577C41.3033 14.4577 41.8967 14.2577 42.37 13.8577C42.8433 13.4577 43.1167 12.9077 43.19 12.2077H40.59V11.3477H44.06C44.0933 11.5344 44.11 11.7144 44.11 11.8877ZM49.4078 8.01773V8.89773H46.1478V11.1677H49.0878V12.0277H46.1478V14.2977H49.4078V15.1777H45.2278V8.01773H49.4078ZM53.0877 8.89773V15.1777H52.1677V8.89773H50.1677V8.01773H55.0877V8.89773H53.0877ZM59.1654 15.1777H58.2454V8.01773H59.1654V15.1777ZM63.0487 8.89773V15.1777H62.1287V8.89773H60.1287V8.01773H65.0487V8.89773H63.0487ZM75.021 11.5977C75.021 12.6577 74.6677 13.5444 73.961 14.2577C73.2477 14.9777 72.3743 15.3377 71.341 15.3377C70.301 15.3377 69.4277 14.9777 68.721 14.2577C68.0143 13.5444 67.661 12.6577 67.661 11.5977C67.661 10.5377 68.0143 9.65107 68.721 8.93773C69.4277 8.21773 70.301 7.85773 71.341 7.85773C72.381 7.85773 73.2543 8.22107 73.961 8.94773C74.6677 9.66107 75.021 10.5444 75.021 11.5977ZM68.601 11.5977C68.601 12.4244 68.861 13.1077 69.381 13.6477C69.9077 14.1877 70.561 14.4577 71.341 14.4577C72.121 14.4577 72.771 14.1877 73.291 13.6477C73.8177 13.1144 74.081 12.4311 74.081 11.5977C74.081 10.7644 73.8177 10.0811 73.291 9.54773C72.771 9.00773 72.121 8.73773 71.341 8.73773C70.561 8.73773 69.9077 9.00773 69.381 9.54773C68.861 10.0877 68.601 10.7711 68.601 11.5977ZM77.0267 15.1777H76.1067V8.01773H77.2267L80.7067 13.5877H80.7467L80.7067 12.2077V8.01773H81.6267V15.1777H80.6667L77.0267 9.33773H76.9867L77.0267 10.7177V15.1777Z" fill="white"/>
<path d="M94.0181 31.5874H95.6469V20.5759H94.0181V31.5874ZM108.689 24.5423L106.822 29.3166H106.766L104.828 24.5423H103.073L105.979 31.2148L104.323 34.9267H106.021L110.5 24.5423H108.689ZM99.4519 30.3366C98.9176 30.3366 98.1739 30.0679 98.1739 29.4011C98.1739 28.552 99.1001 28.2261 99.9005 28.2261C100.616 28.2261 100.954 28.382 101.389 28.5943C101.262 29.6143 100.392 30.3366 99.4519 30.3366ZM99.6483 24.3019C98.469 24.3019 97.2469 24.826 96.7424 25.9878L98.1879 26.5965C98.4969 25.9878 99.0721 25.7887 99.6762 25.7887C100.519 25.7887 101.375 26.2988 101.389 27.206V27.3188C101.094 27.1488 100.463 26.8942 99.6902 26.8942C98.132 26.8942 96.5451 27.7583 96.5451 29.3729C96.5451 30.8466 97.823 31.7961 99.2546 31.7961C100.35 31.7961 100.954 31.3002 101.333 30.7189H101.389V31.5689H102.961V27.347C102.961 25.3924 101.515 24.3019 99.6483 24.3019ZM89.5821 25.883H87.2655V22.1086H89.5821C90.7998 22.1086 91.4911 23.1259 91.4911 23.9953C91.4911 24.8489 90.7998 25.883 89.5821 25.883ZM89.5402 20.5759H85.6375V31.5874H87.2655V27.4157H89.5402C91.3453 27.4157 93.1199 26.0962 93.1199 23.9953C93.1199 21.8945 91.3453 20.5759 89.5402 20.5759ZM68.2583 30.3383C67.1332 30.3383 66.1913 29.3879 66.1913 28.0825C66.1913 26.763 67.1332 25.7976 68.2583 25.7976C69.3695 25.7976 70.2406 26.763 70.2406 28.0825C70.2406 29.3879 69.3695 30.3383 68.2583 30.3383ZM70.1289 25.1589H70.0722C69.7064 24.7194 69.0038 24.3221 68.1178 24.3221C66.2611 24.3221 64.5599 25.9676 64.5599 28.0825C64.5599 30.1824 66.2611 31.8146 68.1178 31.8146C69.0038 31.8146 69.7064 31.4174 70.0722 30.9629H70.1289V31.5028C70.1289 32.936 69.3695 33.7023 68.1457 33.7023C67.1471 33.7023 66.5282 32.9783 66.2751 32.3678L64.8549 32.9642C65.2626 33.9578 66.3458 35.1777 68.1457 35.1777C70.0582 35.1777 71.6757 34.0423 71.6757 31.2756V24.5485H70.1289V25.1589ZM72.8008 31.5874H74.4323V20.575H72.8008V31.5874ZM76.8362 27.9548C76.7943 26.5075 77.9474 25.7694 78.7766 25.7694C79.4243 25.7694 79.9725 26.0953 80.1549 26.5639L76.8362 27.9548ZM81.8989 26.7057C81.5899 25.8689 80.6472 24.3221 78.7208 24.3221C76.8083 24.3221 75.2196 25.8398 75.2196 28.0684C75.2196 30.1683 76.7943 31.8146 78.9032 31.8146C80.6053 31.8146 81.5899 30.7647 81.9976 30.1542L80.7319 29.3025C80.3103 29.927 79.7333 30.3383 78.9032 30.3383C78.0739 30.3383 77.483 29.9552 77.1033 29.2038L82.0674 27.1312L81.8989 26.7057ZM42.3501 25.4716V27.0607H46.1184C46.0058 27.9548 45.7107 28.6075 45.2612 29.0611C44.7121 29.6152 43.8541 30.2256 42.3501 30.2256C40.0291 30.2256 38.2152 28.3379 38.2152 25.9966C38.2152 23.6544 40.0291 21.7677 42.3501 21.7677C43.6018 21.7677 44.5157 22.2645 45.1905 22.9031L46.3017 21.7818C45.3589 20.8736 44.1081 20.1777 42.3501 20.1777C39.1719 20.1777 36.5 22.7895 36.5 25.9966C36.5 29.2038 39.1719 31.8146 42.3501 31.8146C44.0653 31.8146 45.3589 31.2465 46.3715 30.1824C47.4129 29.1325 47.7358 27.657 47.7358 26.4644C47.7358 26.0953 47.7079 25.7553 47.6512 25.4716H42.3501ZM52.0208 30.3383C50.8957 30.3383 49.925 29.402 49.925 28.0684C49.925 26.7198 50.8957 25.7976 52.0208 25.7976C53.1451 25.7976 54.1158 26.7198 54.1158 28.0684C54.1158 29.402 53.1451 30.3383 52.0208 30.3383ZM52.0208 24.3221C49.9669 24.3221 48.2936 25.8971 48.2936 28.0684C48.2936 30.2256 49.9669 31.8146 52.0208 31.8146C54.0739 31.8146 55.7472 30.2256 55.7472 28.0684C55.7472 25.8971 54.0739 24.3221 52.0208 24.3221ZM60.15 30.3383C59.0249 30.3383 58.0542 29.402 58.0542 28.0684C58.0542 26.7198 59.0249 25.7976 60.15 25.7976C61.2752 25.7976 62.245 26.7198 62.245 28.0684C62.245 29.402 61.2752 30.3383 60.15 30.3383ZM60.15 24.3221C58.097 24.3221 56.4237 25.8971 56.4237 28.0684C56.4237 30.2256 58.097 31.8146 60.15 31.8146C62.2031 31.8146 63.8764 30.2256 63.8764 28.0684C63.8764 25.8971 62.2031 24.3221 60.15 24.3221Z" fill="white"/>
</svg>
