<svg width="121" height="41" viewBox="0 0 121 41" fill="none" xmlns="http://www.w3.org/2000/svg">
<rect x="1" y="0.677734" width="119" height="39" rx="5.5" fill="black"/>
<rect x="1" y="0.677734" width="119" height="39" rx="5.5" stroke="#A6A6A6"/>
<path d="M25.2045 20.9408C25.2166 20.0209 25.4669 19.119 25.9321 18.3189C26.3972 17.5188 27.0621 16.8466 27.8648 16.3647C27.3548 15.6537 26.6821 15.0685 25.9 14.6557C25.1178 14.2429 24.2479 14.0138 23.3592 13.9867C21.4635 13.7924 19.6258 15.0941 18.6598 15.0941C17.6751 15.0941 16.1878 14.006 14.5862 14.0381C13.5502 14.0708 12.5406 14.3649 11.6557 14.8918C10.7708 15.4187 10.0407 16.1604 9.53674 17.0446C7.35352 20.735 8.98201 26.1587 11.0734 29.1417C12.1197 30.6024 13.3426 32.2341 14.9428 32.1762C16.5086 32.1128 17.0934 31.2014 18.9835 31.2014C20.8561 31.2014 21.4048 32.1762 23.0374 32.1394C24.7176 32.1128 25.7762 30.6722 26.7859 29.1977C27.5377 28.1569 28.1162 27.0065 28.5 25.7893C27.5238 25.3862 26.6908 24.7115 26.1048 23.8493C25.5187 22.9871 25.2056 21.9756 25.2045 20.9408Z" fill="white"/>
<path d="M22.121 12.0249C23.0372 10.9512 23.4885 9.57109 23.3792 8.17773C21.9796 8.32125 20.6867 8.97433 19.7582 10.0068C19.3043 10.5112 18.9566 11.0981 18.735 11.7337C18.5135 12.3694 18.4224 13.0415 18.4671 13.7115C19.1672 13.7186 19.8597 13.5704 20.4927 13.2783C21.1256 12.9861 21.6824 12.5576 22.121 12.0249Z" fill="white"/>
<path d="M37.291 8.6792H39.3608C41.1494 8.6792 42.0195 9.74268 42.0195 11.6719C42.0195 13.6011 41.1406 14.6777 39.3608 14.6777H37.291V8.6792ZM38.2886 9.51855V13.8384H39.251C40.4375 13.8384 40.9956 13.1221 40.9956 11.6851C40.9956 10.2393 40.4331 9.51855 39.251 9.51855H38.2886ZM45.1748 9.95361C46.3877 9.95361 47.2358 10.7402 47.2358 12.0454V12.6475C47.2358 13.9966 46.3877 14.7568 45.1748 14.7568C43.9443 14.7568 43.105 14.0054 43.105 12.6519V12.0498C43.105 10.7798 43.9575 9.95361 45.1748 9.95361ZM45.1792 10.7402C44.4849 10.7402 44.0894 11.3203 44.0894 12.0981V12.6167C44.0894 13.3945 44.4585 13.9702 45.1792 13.9702C45.8911 13.9702 46.2559 13.3989 46.2559 12.6167V12.0981C46.2559 11.3203 45.8735 10.7402 45.1792 10.7402ZM54.3989 10.0327L53.1772 14.6777H52.1841L51.2129 11.25H51.1865L50.2329 14.6777H49.2354L47.9609 10.0327H49.0112L49.7583 13.5747H49.8022L50.7383 10.0327H51.6567L52.6191 13.5747H52.6631L53.4233 10.0327H54.3989ZM55.3657 14.6777V10.0327H56.3237V10.8677H56.3721C56.4907 10.5029 56.8291 9.9624 57.7695 9.9624C58.7056 9.9624 59.334 10.481 59.334 11.54V14.6777H58.3584V11.8257C58.3584 11.1182 57.9893 10.793 57.4399 10.793C56.7192 10.793 56.3413 11.3467 56.3413 12.0981V14.6777H55.3657ZM60.8105 14.6777V8.36279H61.7861V14.6777H60.8105ZM65.1348 9.95361C66.3477 9.95361 67.1958 10.7402 67.1958 12.0454V12.6475C67.1958 13.9966 66.3477 14.7568 65.1348 14.7568C63.9043 14.7568 63.0649 14.0054 63.0649 12.6519V12.0498C63.0649 10.7798 63.9175 9.95361 65.1348 9.95361ZM65.1392 10.7402C64.4448 10.7402 64.0493 11.3203 64.0493 12.0981V12.6167C64.0493 13.3945 64.4185 13.9702 65.1392 13.9702C65.8511 13.9702 66.2158 13.3989 66.2158 12.6167V12.0981C66.2158 11.3203 65.8335 10.7402 65.1392 10.7402ZM69.7227 14.748C68.8218 14.748 68.2021 14.1943 68.2021 13.3286C68.2021 12.5068 68.7734 11.9531 69.8457 11.9531H71.019V11.5181C71.019 10.9863 70.6807 10.7358 70.1445 10.7358C69.6172 10.7358 69.3799 10.9556 69.3052 11.2632H68.3779C68.4351 10.4854 69.0195 9.9624 70.1753 9.9624C71.1685 9.9624 71.9902 10.3755 71.9902 11.5312V14.6777H71.063V14.0757H71.019C70.8125 14.4316 70.4082 14.748 69.7227 14.748ZM70.0259 13.9922C70.5796 13.9922 71.019 13.6143 71.019 13.1089V12.6079H69.9995C69.4326 12.6079 69.1821 12.8936 69.1821 13.2803C69.1821 13.7637 69.5864 13.9922 70.0259 13.9922ZM74.9961 9.97119C75.6509 9.97119 76.1519 10.2612 76.332 10.7314H76.3804V8.36279H77.356V14.6777H76.4067V13.9351H76.3584C76.2178 14.4053 75.6597 14.7393 74.9829 14.7393C73.915 14.7393 73.2207 13.979 73.2207 12.7529V11.9575C73.2207 10.7314 73.9282 9.97119 74.9961 9.97119ZM75.2686 10.771C74.6182 10.771 74.2139 11.2544 74.2139 12.0981V12.6079C74.2139 13.4561 74.6226 13.9395 75.2905 13.9395C75.9497 13.9395 76.3804 13.4604 76.3804 12.6694V11.9663C76.3804 11.25 75.9102 10.771 75.2686 10.771ZM82.7129 9.95361C83.9258 9.95361 84.7739 10.7402 84.7739 12.0454V12.6475C84.7739 13.9966 83.9258 14.7568 82.7129 14.7568C81.4824 14.7568 80.6431 14.0054 80.6431 12.6519V12.0498C80.6431 10.7798 81.4956 9.95361 82.7129 9.95361ZM82.7173 10.7402C82.0229 10.7402 81.6274 11.3203 81.6274 12.0981V12.6167C81.6274 13.3945 81.9966 13.9702 82.7173 13.9702C83.4292 13.9702 83.7939 13.3989 83.7939 12.6167V12.0981C83.7939 11.3203 83.4116 10.7402 82.7173 10.7402ZM86.0308 14.6777V10.0327H86.9888V10.8677H87.0371C87.1558 10.5029 87.4941 9.9624 88.4346 9.9624C89.3706 9.9624 89.999 10.481 89.999 11.54V14.6777H89.0234V11.8257C89.0234 11.1182 88.6543 10.793 88.105 10.793C87.3843 10.793 87.0063 11.3467 87.0063 12.0981V14.6777H86.0308ZM93.7739 10.0635V8.90332H94.7275V10.0635H95.769V10.8281H94.7275V13.2935C94.7275 13.7988 94.9165 13.9395 95.4395 13.9395C95.5713 13.9395 95.7471 13.9307 95.8218 13.9219V14.6689C95.7427 14.6821 95.4175 14.7085 95.1978 14.7085C94.0684 14.7085 93.7607 14.3042 93.7607 13.3726V10.8281H93.0532V10.0635H93.7739ZM96.9995 14.6777V8.36279H97.9707V10.8677H98.019C98.1201 10.5381 98.498 9.9624 99.4297 9.9624C100.335 9.9624 100.981 10.4854 100.981 11.5444V14.6777H100.01V11.8301C100.01 11.1226 99.6187 10.793 99.0649 10.793C98.3662 10.793 97.9707 11.3423 97.9707 12.0981V14.6777H96.9995ZM104.255 14.7568C102.989 14.7568 102.203 13.979 102.203 12.6694V12.041C102.203 10.7227 103.064 9.95361 104.198 9.95361C105.362 9.95361 106.184 10.7622 106.184 12.041V12.5859H103.169V12.8145C103.169 13.4824 103.565 13.9746 104.25 13.9746C104.76 13.9746 105.112 13.7329 105.178 13.4429H106.131C106.074 13.979 105.507 14.7568 104.255 14.7568ZM103.169 11.9487H105.23V11.8872C105.23 11.1885 104.822 10.7227 104.202 10.7227C103.583 10.7227 103.169 11.1885 103.169 11.8872V11.9487Z" fill="white"/>
<path d="M38.7061 30.6777H36.6758L40.8066 18.6807H43.0391L47.1611 30.6777H45.0518L43.9883 27.3555H39.7783L38.7061 30.6777ZM41.9316 20.7549H41.8525L40.2266 25.8262H43.54L41.9316 20.7549ZM52.7644 30.8096C51.5603 30.8096 50.6462 30.2383 50.154 29.3857H50.0837V33.7627H48.1325V21.3877H50.031V22.75H50.1013C50.6111 21.8623 51.5603 21.2646 52.8083 21.2646C54.8913 21.2646 56.3767 22.8379 56.3767 25.6152V26.4414C56.3767 29.2012 54.9089 30.8096 52.7644 30.8096ZM52.3161 29.2012C53.5554 29.2012 54.3991 28.208 54.3991 26.3359V25.6855C54.3991 23.8838 53.6081 22.8555 52.281 22.8555C50.9187 22.8555 50.0661 23.9629 50.0661 25.6768V26.3359C50.0661 28.0938 50.9275 29.2012 52.3161 29.2012ZM62.683 30.8096C61.4789 30.8096 60.5649 30.2383 60.0727 29.3857H60.0024V33.7627H58.0512V21.3877H59.9496V22.75H60.02C60.5297 21.8623 61.4789 21.2646 62.727 21.2646C64.81 21.2646 66.2954 22.8379 66.2954 25.6152V26.4414C66.2954 29.2012 64.8276 30.8096 62.683 30.8096ZM62.2348 29.2012C63.4741 29.2012 64.3178 28.208 64.3178 26.3359V25.6855C64.3178 23.8838 63.5268 22.8555 62.1996 22.8555C60.8373 22.8555 59.9848 23.9629 59.9848 25.6768V26.3359C59.9848 28.0938 60.8461 29.2012 62.2348 29.2012ZM70.3387 27.3467H72.2899C72.3778 28.3838 73.2919 29.2715 74.9882 29.2715C76.5438 29.2715 77.4667 28.542 77.4667 27.4082C77.4667 26.4941 76.8514 26.002 75.5682 25.6943L73.5995 25.2021C72.0526 24.8418 70.6639 23.9189 70.6639 21.9678C70.6639 19.6738 72.6679 18.417 74.997 18.417C77.3261 18.417 79.2684 19.6738 79.3124 21.915H77.3964C77.3085 20.8955 76.5262 20.0518 74.9706 20.0518C73.5995 20.0518 72.6679 20.7021 72.6679 21.8184C72.6679 22.6006 73.2128 23.1631 74.329 23.418L76.2889 23.9014C78.0907 24.3408 79.4618 25.1934 79.4618 27.2324C79.4618 29.5879 77.5546 30.915 74.8387 30.915C71.4989 30.915 70.3827 28.9639 70.3387 27.3467ZM81.8395 21.3877V19.1289H83.7555V21.3877H85.566V22.9521H83.7555V27.9092C83.7555 28.9199 84.1334 29.2012 85.1793 29.2012C85.3463 29.2012 85.5045 29.2012 85.6188 29.1836V30.6777C85.4605 30.7041 85.0914 30.7393 84.6959 30.7393C82.4371 30.7393 81.8131 29.9307 81.8131 28.0674V22.9521H80.5299V21.3877H81.8395ZM90.8353 21.2295C93.5071 21.2295 94.9573 23.1104 94.9573 25.6416V26.3887C94.9573 29.0078 93.5159 30.8359 90.8353 30.8359C88.1546 30.8359 86.6956 29.0078 86.6956 26.3887V25.6416C86.6956 23.1191 88.1634 21.2295 90.8353 21.2295ZM90.8353 22.7939C89.3851 22.7939 88.6644 23.9805 88.6644 25.668V26.3799C88.6644 28.041 89.3763 29.2627 90.8353 29.2627C92.2943 29.2627 92.9974 28.0498 92.9974 26.3799V25.668C92.9974 23.9717 92.2855 22.7939 90.8353 22.7939ZM96.6055 30.6777V21.3877H98.5567V22.6094H98.627C98.8643 22.0293 99.5586 21.2559 100.851 21.2559C101.106 21.2559 101.325 21.2734 101.51 21.3086V23.0312C101.343 22.9873 101 22.9609 100.675 22.9609C99.1104 22.9609 98.583 23.9277 98.583 25.1758V30.6777H96.6055ZM106.243 30.8359C103.756 30.8359 102.174 29.1924 102.174 26.4414V25.501C102.174 22.9082 103.72 21.2295 106.164 21.2295C108.642 21.2295 110.136 22.9697 110.136 25.5889V26.4766H104.098V26.6963C104.098 28.2607 104.942 29.2979 106.269 29.2979C107.262 29.2979 107.939 28.8057 108.177 28.0059H110.031C109.75 29.5088 108.537 30.8359 106.243 30.8359ZM104.098 25.1143H108.229V25.0967C108.229 23.7783 107.412 22.7412 106.173 22.7412C104.916 22.7412 104.098 23.7783 104.098 25.0967V25.1143Z" fill="white"/>
</svg>
